<?xml version="1.0" standalone="no"?>
<svg xmlns:xlink="http://www.w3.org/1999/xlink" id="wave" style="transform:rotate(0deg); transition: 0.3s" viewBox="0 0 1440 400" version="1.1" xmlns="http://www.w3.org/2000/svg"><defs><linearGradient id="sw-gradient-0" x1="0" x2="0" y1="1" y2="0"><stop stop-color="rgba(227.416, 62, 243, 1)" offset="0%"/><stop stop-color="rgba(11, 250.867, 255, 1)" offset="100%"/></linearGradient></defs><path style="transform:translate(0, 0px); opacity:1" fill="url(#sw-gradient-0)" d="M0,0L24,46.7C48,93,96,187,144,206.7C192,227,240,173,288,126.7C336,80,384,40,432,46.7C480,53,528,107,576,146.7C624,187,672,213,720,240C768,267,816,293,864,293.3C912,293,960,267,1008,213.3C1056,160,1104,80,1152,73.3C1200,67,1248,133,1296,146.7C1344,160,1392,120,1440,126.7C1488,133,1536,187,1584,173.3C1632,160,1680,80,1728,100C1776,120,1824,240,1872,293.3C1920,347,1968,333,2016,280C2064,227,2112,133,2160,133.3C2208,133,2256,227,2304,260C2352,293,2400,267,2448,220C2496,173,2544,107,2592,106.7C2640,107,2688,173,2736,226.7C2784,280,2832,320,2880,293.3C2928,267,2976,173,3024,146.7C3072,120,3120,160,3168,186.7C3216,213,3264,227,3312,233.3C3360,240,3408,240,3432,240L3456,240L3456,400L3432,400C3408,400,3360,400,3312,400C3264,400,3216,400,3168,400C3120,400,3072,400,3024,400C2976,400,2928,400,2880,400C2832,400,2784,400,2736,400C2688,400,2640,400,2592,400C2544,400,2496,400,2448,400C2400,400,2352,400,2304,400C2256,400,2208,400,2160,400C2112,400,2064,400,2016,400C1968,400,1920,400,1872,400C1824,400,1776,400,1728,400C1680,400,1632,400,1584,400C1536,400,1488,400,1440,400C1392,400,1344,400,1296,400C1248,400,1200,400,1152,400C1104,400,1056,400,1008,400C960,400,912,400,864,400C816,400,768,400,720,400C672,400,624,400,576,400C528,400,480,400,432,400C384,400,336,400,288,400C240,400,192,400,144,400C96,400,48,400,24,400L0,400Z"/><defs><linearGradient id="sw-gradient-1" x1="0" x2="0" y1="1" y2="0"><stop stop-color="rgba(63.184, 208.552, 228.105, 1)" offset="0%"/><stop stop-color="rgba(255, 11, 251.212, 1)" offset="100%"/></linearGradient></defs><path style="transform:translate(0, 50px); opacity:0.9" fill="url(#sw-gradient-1)" d="M0,40L24,46.7C48,53,96,67,144,106.7C192,147,240,213,288,233.3C336,253,384,227,432,193.3C480,160,528,120,576,86.7C624,53,672,27,720,66.7C768,107,816,213,864,233.3C912,253,960,187,1008,173.3C1056,160,1104,200,1152,226.7C1200,253,1248,267,1296,226.7C1344,187,1392,93,1440,53.3C1488,13,1536,27,1584,53.3C1632,80,1680,120,1728,140C1776,160,1824,160,1872,160C1920,160,1968,160,2016,186.7C2064,213,2112,267,2160,286.7C2208,307,2256,293,2304,286.7C2352,280,2400,280,2448,253.3C2496,227,2544,173,2592,186.7C2640,200,2688,280,2736,273.3C2784,267,2832,173,2880,166.7C2928,160,2976,240,3024,233.3C3072,227,3120,133,3168,86.7C3216,40,3264,40,3312,46.7C3360,53,3408,67,3432,73.3L3456,80L3456,400L3432,400C3408,400,3360,400,3312,400C3264,400,3216,400,3168,400C3120,400,3072,400,3024,400C2976,400,2928,400,2880,400C2832,400,2784,400,2736,400C2688,400,2640,400,2592,400C2544,400,2496,400,2448,400C2400,400,2352,400,2304,400C2256,400,2208,400,2160,400C2112,400,2064,400,2016,400C1968,400,1920,400,1872,400C1824,400,1776,400,1728,400C1680,400,1632,400,1584,400C1536,400,1488,400,1440,400C1392,400,1344,400,1296,400C1248,400,1200,400,1152,400C1104,400,1056,400,1008,400C960,400,912,400,864,400C816,400,768,400,720,400C672,400,624,400,576,400C528,400,480,400,432,400C384,400,336,400,288,400C240,400,192,400,144,400C96,400,48,400,24,400L0,400Z"/></svg>