<?xml version="1.0" standalone="no"?>
<svg xmlns:xlink="http://www.w3.org/1999/xlink" id="wave" style="transform:rotate(0deg); transition: 0.3s" viewBox="0 0 1440 200" version="1.1" xmlns="http://www.w3.org/2000/svg"><defs><linearGradient id="sw-gradient-0" x1="0" x2="0" y1="1" y2="0"><stop stop-color="rgba(227.416, 62, 243, 1)" offset="0%"/><stop stop-color="rgba(11, 250.867, 255, 1)" offset="100%"/></linearGradient></defs><path style="transform:translate(0, 0px); opacity:1" fill="url(#sw-gradient-0)" d="M0,160L20,146.7C40,133,80,107,120,83.3C160,60,200,40,240,36.7C280,33,320,47,360,70C400,93,440,127,480,136.7C520,147,560,133,600,120C640,107,680,93,720,80C760,67,800,53,840,70C880,87,920,133,960,133.3C1000,133,1040,87,1080,60C1120,33,1160,27,1200,36.7C1240,47,1280,73,1320,100C1360,127,1400,153,1440,146.7C1480,140,1520,100,1560,96.7C1600,93,1640,127,1680,133.3C1720,140,1760,120,1800,123.3C1840,127,1880,153,1920,150C1960,147,2000,113,2040,100C2080,87,2120,93,2160,106.7C2200,120,2240,140,2280,146.7C2320,153,2360,147,2400,150C2440,153,2480,167,2520,156.7C2560,147,2600,113,2640,113.3C2680,113,2720,147,2760,143.3C2800,140,2840,100,2860,80L2880,60L2880,200L2860,200C2840,200,2800,200,2760,200C2720,200,2680,200,2640,200C2600,200,2560,200,2520,200C2480,200,2440,200,2400,200C2360,200,2320,200,2280,200C2240,200,2200,200,2160,200C2120,200,2080,200,2040,200C2000,200,1960,200,1920,200C1880,200,1840,200,1800,200C1760,200,1720,200,1680,200C1640,200,1600,200,1560,200C1520,200,1480,200,1440,200C1400,200,1360,200,1320,200C1280,200,1240,200,1200,200C1160,200,1120,200,1080,200C1040,200,1000,200,960,200C920,200,880,200,840,200C800,200,760,200,720,200C680,200,640,200,600,200C560,200,520,200,480,200C440,200,400,200,360,200C320,200,280,200,240,200C200,200,160,200,120,200C80,200,40,200,20,200L0,200Z"/><defs><linearGradient id="sw-gradient-1" x1="0" x2="0" y1="1" y2="0"><stop stop-color="rgba(63.184, 208.552, 228.105, 1)" offset="0%"/><stop stop-color="rgba(255, 11, 251.212, 1)" offset="100%"/></linearGradient></defs><path style="transform:translate(0, 50px); opacity:0.9" fill="url(#sw-gradient-1)" d="M0,20L20,30C40,40,80,60,120,60C160,60,200,40,240,53.3C280,67,320,113,360,120C400,127,440,93,480,73.3C520,53,560,47,600,50C640,53,680,67,720,76.7C760,87,800,93,840,90C880,87,920,73,960,56.7C1000,40,1040,20,1080,16.7C1120,13,1160,27,1200,36.7C1240,47,1280,53,1320,63.3C1360,73,1400,87,1440,76.7C1480,67,1520,33,1560,43.3C1600,53,1640,107,1680,116.7C1720,127,1760,93,1800,66.7C1840,40,1880,20,1920,36.7C1960,53,2000,107,2040,130C2080,153,2120,147,2160,136.7C2200,127,2240,113,2280,103.3C2320,93,2360,87,2400,76.7C2440,67,2480,53,2520,56.7C2560,60,2600,80,2640,93.3C2680,107,2720,113,2760,96.7C2800,80,2840,40,2860,20L2880,0L2880,200L2860,200C2840,200,2800,200,2760,200C2720,200,2680,200,2640,200C2600,200,2560,200,2520,200C2480,200,2440,200,2400,200C2360,200,2320,200,2280,200C2240,200,2200,200,2160,200C2120,200,2080,200,2040,200C2000,200,1960,200,1920,200C1880,200,1840,200,1800,200C1760,200,1720,200,1680,200C1640,200,1600,200,1560,200C1520,200,1480,200,1440,200C1400,200,1360,200,1320,200C1280,200,1240,200,1200,200C1160,200,1120,200,1080,200C1040,200,1000,200,960,200C920,200,880,200,840,200C800,200,760,200,720,200C680,200,640,200,600,200C560,200,520,200,480,200C440,200,400,200,360,200C320,200,280,200,240,200C200,200,160,200,120,200C80,200,40,200,20,200L0,200Z"/></svg>