<?xml version="1.0" standalone="no"?>
<svg xmlns:xlink="http://www.w3.org/1999/xlink" id="wave" style="transform:rotate(0deg); transition: 0.3s" viewBox="0 0 1440 230" version="1.1" xmlns="http://www.w3.org/2000/svg"><defs><linearGradient id="sw-gradient-0" x1="0" x2="0" y1="1" y2="0"><stop stop-color="rgba(227.416, 62, 243, 1)" offset="0%"/><stop stop-color="rgba(11, 250.867, 255, 1)" offset="100%"/></linearGradient></defs><path style="transform:translate(0, 0px); opacity:1" fill="url(#sw-gradient-0)" d="M0,184L20,168.7C40,153,80,123,120,95.8C160,69,200,46,240,42.2C280,38,320,54,360,80.5C400,107,440,146,480,157.2C520,169,560,153,600,138C640,123,680,107,720,92C760,77,800,61,840,80.5C880,100,920,153,960,153.3C1000,153,1040,100,1080,69C1120,38,1160,31,1200,42.2C1240,54,1280,84,1320,115C1360,146,1400,176,1440,168.7C1480,161,1520,115,1560,111.2C1600,107,1640,146,1680,153.3C1720,161,1760,138,1800,141.8C1840,146,1880,176,1920,172.5C1960,169,2000,130,2040,115C2080,100,2120,107,2160,122.7C2200,138,2240,161,2280,168.7C2320,176,2360,169,2400,172.5C2440,176,2480,192,2520,180.2C2560,169,2600,130,2640,130.3C2680,130,2720,169,2760,164.8C2800,161,2840,115,2860,92L2880,69L2880,230L2860,230C2840,230,2800,230,2760,230C2720,230,2680,230,2640,230C2600,230,2560,230,2520,230C2480,230,2440,230,2400,230C2360,230,2320,230,2280,230C2240,230,2200,230,2160,230C2120,230,2080,230,2040,230C2000,230,1960,230,1920,230C1880,230,1840,230,1800,230C1760,230,1720,230,1680,230C1640,230,1600,230,1560,230C1520,230,1480,230,1440,230C1400,230,1360,230,1320,230C1280,230,1240,230,1200,230C1160,230,1120,230,1080,230C1040,230,1000,230,960,230C920,230,880,230,840,230C800,230,760,230,720,230C680,230,640,230,600,230C560,230,520,230,480,230C440,230,400,230,360,230C320,230,280,230,240,230C200,230,160,230,120,230C80,230,40,230,20,230L0,230Z"/><defs><linearGradient id="sw-gradient-1" x1="0" x2="0" y1="1" y2="0"><stop stop-color="rgba(63.184, 208.552, 228.105, 1)" offset="0%"/><stop stop-color="rgba(255, 11, 251.212, 1)" offset="100%"/></linearGradient></defs><path style="transform:translate(0, 50px); opacity:0.9" fill="url(#sw-gradient-1)" d="M0,23L20,34.5C40,46,80,69,120,69C160,69,200,46,240,61.3C280,77,320,130,360,138C400,146,440,107,480,84.3C520,61,560,54,600,57.5C640,61,680,77,720,88.2C760,100,800,107,840,103.5C880,100,920,84,960,65.2C1000,46,1040,23,1080,19.2C1120,15,1160,31,1200,42.2C1240,54,1280,61,1320,72.8C1360,84,1400,100,1440,88.2C1480,77,1520,38,1560,49.8C1600,61,1640,123,1680,134.2C1720,146,1760,107,1800,76.7C1840,46,1880,23,1920,42.2C1960,61,2000,123,2040,149.5C2080,176,2120,169,2160,157.2C2200,146,2240,130,2280,118.8C2320,107,2360,100,2400,88.2C2440,77,2480,61,2520,65.2C2560,69,2600,92,2640,107.3C2680,123,2720,130,2760,111.2C2800,92,2840,46,2860,23L2880,0L2880,230L2860,230C2840,230,2800,230,2760,230C2720,230,2680,230,2640,230C2600,230,2560,230,2520,230C2480,230,2440,230,2400,230C2360,230,2320,230,2280,230C2240,230,2200,230,2160,230C2120,230,2080,230,2040,230C2000,230,1960,230,1920,230C1880,230,1840,230,1800,230C1760,230,1720,230,1680,230C1640,230,1600,230,1560,230C1520,230,1480,230,1440,230C1400,230,1360,230,1320,230C1280,230,1240,230,1200,230C1160,230,1120,230,1080,230C1040,230,1000,230,960,230C920,230,880,230,840,230C800,230,760,230,720,230C680,230,640,230,600,230C560,230,520,230,480,230C440,230,400,230,360,230C320,230,280,230,240,230C200,230,160,230,120,230C80,230,40,230,20,230L0,230Z"/></svg>