<?xml version="1.0" standalone="no"?>
<svg xmlns:xlink="http://www.w3.org/1999/xlink" id="wave" style="transform:rotate(180deg); transition: 0.3s" viewBox="0 0 1440 160" version="1.1" xmlns="http://www.w3.org/2000/svg"><defs><linearGradient id="sw-gradient-0" x1="0" x2="0" y1="1" y2="0"><stop stop-color="rgba(227.416, 62, 243, 1)" offset="0%"/><stop stop-color="rgba(11, 250.867, 255, 1)" offset="100%"/></linearGradient></defs><path style="transform:translate(0, 0px); opacity:1" fill="url(#sw-gradient-0)" d="M0,128L24,117.3C48,107,96,85,144,66.7C192,48,240,32,288,29.3C336,27,384,37,432,56C480,75,528,101,576,109.3C624,117,672,107,720,96C768,85,816,75,864,64C912,53,960,43,1008,56C1056,69,1104,107,1152,106.7C1200,107,1248,69,1296,48C1344,27,1392,21,1440,29.3C1488,37,1536,59,1584,80C1632,101,1680,123,1728,117.3C1776,112,1824,80,1872,77.3C1920,75,1968,101,2016,106.7C2064,112,2112,96,2160,98.7C2208,101,2256,123,2304,120C2352,117,2400,91,2448,80C2496,69,2544,75,2592,85.3C2640,96,2688,112,2736,117.3C2784,123,2832,117,2880,120C2928,123,2976,133,3024,125.3C3072,117,3120,91,3168,90.7C3216,91,3264,117,3312,114.7C3360,112,3408,80,3432,64L3456,48L3456,160L3432,160C3408,160,3360,160,3312,160C3264,160,3216,160,3168,160C3120,160,3072,160,3024,160C2976,160,2928,160,2880,160C2832,160,2784,160,2736,160C2688,160,2640,160,2592,160C2544,160,2496,160,2448,160C2400,160,2352,160,2304,160C2256,160,2208,160,2160,160C2112,160,2064,160,2016,160C1968,160,1920,160,1872,160C1824,160,1776,160,1728,160C1680,160,1632,160,1584,160C1536,160,1488,160,1440,160C1392,160,1344,160,1296,160C1248,160,1200,160,1152,160C1104,160,1056,160,1008,160C960,160,912,160,864,160C816,160,768,160,720,160C672,160,624,160,576,160C528,160,480,160,432,160C384,160,336,160,288,160C240,160,192,160,144,160C96,160,48,160,24,160L0,160Z"/><defs><linearGradient id="sw-gradient-1" x1="0" x2="0" y1="1" y2="0"><stop stop-color="rgba(63.184, 208.552, 228.105, 1)" offset="0%"/><stop stop-color="rgba(255, 11, 251.212, 1)" offset="100%"/></linearGradient></defs><path style="transform:translate(0, 50px); opacity:0.9" fill="url(#sw-gradient-1)" d="M0,16L24,24C48,32,96,48,144,48C192,48,240,32,288,42.7C336,53,384,91,432,96C480,101,528,75,576,58.7C624,43,672,37,720,40C768,43,816,53,864,61.3C912,69,960,75,1008,72C1056,69,1104,59,1152,45.3C1200,32,1248,16,1296,13.3C1344,11,1392,21,1440,29.3C1488,37,1536,43,1584,50.7C1632,59,1680,69,1728,61.3C1776,53,1824,27,1872,34.7C1920,43,1968,85,2016,93.3C2064,101,2112,75,2160,53.3C2208,32,2256,16,2304,29.3C2352,43,2400,85,2448,104C2496,123,2544,117,2592,109.3C2640,101,2688,91,2736,82.7C2784,75,2832,69,2880,61.3C2928,53,2976,43,3024,45.3C3072,48,3120,64,3168,74.7C3216,85,3264,91,3312,77.3C3360,64,3408,32,3432,16L3456,0L3456,160L3432,160C3408,160,3360,160,3312,160C3264,160,3216,160,3168,160C3120,160,3072,160,3024,160C2976,160,2928,160,2880,160C2832,160,2784,160,2736,160C2688,160,2640,160,2592,160C2544,160,2496,160,2448,160C2400,160,2352,160,2304,160C2256,160,2208,160,2160,160C2112,160,2064,160,2016,160C1968,160,1920,160,1872,160C1824,160,1776,160,1728,160C1680,160,1632,160,1584,160C1536,160,1488,160,1440,160C1392,160,1344,160,1296,160C1248,160,1200,160,1152,160C1104,160,1056,160,1008,160C960,160,912,160,864,160C816,160,768,160,720,160C672,160,624,160,576,160C528,160,480,160,432,160C384,160,336,160,288,160C240,160,192,160,144,160C96,160,48,160,24,160L0,160Z"/></svg>